<svg width="36" height="36" viewBox="0 0 36 36" fill="none" xmlns="http://www.w3.org/2000/svg">
<g clip-path="url(#clip0_2_18594)">
<path d="M32.8801 13.125L29.1301 15" stroke="#315BFF" stroke-width="2" stroke-linecap="round" stroke-linejoin="round"/>
<path d="M6.86993 15L3.11993 13.125" stroke="#315BFF" stroke-width="2" stroke-linecap="round" stroke-linejoin="round"/>
<path d="M27.18 20.8799H23.46" stroke="#315BFF" stroke-width="2" stroke-linecap="round" stroke-linejoin="round"/>
<path d="M12.4201 20.8799H8.70007" stroke="#315BFF" stroke-width="2" stroke-linecap="round" stroke-linejoin="round"/>
<path d="M32.8845 26.031V18.75C32.8845 16.6785 31.206 15 29.1345 15H6.86554C4.79404 15 3.11554 16.6785 3.11554 18.75V25.6365" stroke="#315BFF" stroke-width="2" stroke-linecap="round" stroke-linejoin="round"/>
<path d="M32.8846 25.6531V28.3276C32.8846 29.3551 32.0521 30.1876 31.0246 30.1876H27.3031C26.2756 30.1876 25.4431 29.3551 25.4431 28.3276V26.4676" stroke="#315BFF" stroke-width="2" stroke-linecap="round" stroke-linejoin="round"/>
<path d="M10.557 26.4661V28.3261C10.557 29.3536 9.72454 30.1861 8.69704 30.1861H4.97554C3.94804 30.1861 3.11554 29.3536 3.11554 28.3261V25.6516" stroke="#315BFF" stroke-width="2" stroke-linecap="round" stroke-linejoin="round"/>
<path d="M25.4401 26.4602H10.5601" stroke="#315BFF" stroke-width="2" stroke-linecap="round" stroke-linejoin="round"/>
<path d="M29.136 14.9986L27.81 8.66413C27.447 6.92713 25.914 5.68213 24.1395 5.68213H12.0195C10.278 5.68213 8.7645 6.88213 8.3685 8.57863L6.867 15.0001" stroke="#315BFF" stroke-width="2" stroke-linecap="round" stroke-linejoin="round"/>
</g>
<defs>
<clipPath id="clip0_2_18594">
<rect width="36" height="36" fill="white"/>
</clipPath>
</defs>
</svg>
