<svg width="36" height="36" viewBox="0 0 36 36" fill="none" xmlns="http://www.w3.org/2000/svg">
<path d="M30 27.75C30 29.4075 28.6575 30.75 27 30.75H7.5C5.8425 30.75 4.5 29.4075 4.5 27.75V7.5" stroke="#315BFF" stroke-width="2" stroke-linecap="round" stroke-linejoin="round"/>
<path d="M25.5 5.25H6.75C5.508 5.25 4.5 6.258 4.5 7.5C4.5 8.742 5.508 9.75 6.75 9.75H27C28.6575 9.75 30 11.0925 30 12.75" stroke="#315BFF" stroke-width="2" stroke-linecap="round" stroke-linejoin="round"/>
<path d="M30 12.75V17.25" stroke="#315BFF" stroke-width="2" stroke-linecap="round" stroke-linejoin="round"/>
<path d="M30 23.25V27.75" stroke="#315BFF" stroke-width="2" stroke-linecap="round" stroke-linejoin="round"/>
<path d="M30 23.25H27C25.3425 23.25 24 21.9075 24 20.25C24 18.5925 25.3425 17.25 27 17.25H30C30.828 17.25 31.5 17.922 31.5 18.75V21.75C31.5 22.578 30.828 23.25 30 23.25Z" stroke="#315BFF" stroke-width="2" stroke-linecap="round" stroke-linejoin="round"/>
</svg>
