<svg width="48" height="48" viewBox="0 0 48 48" fill="none" xmlns="http://www.w3.org/2000/svg">
<g filter="url(#filter0_d_2_14647)">
<circle cx="24" cy="19" r="16" fill="white"/>
</g>
<path d="M28.6667 16.3333H19.3333C18.597 16.3333 18 16.9302 18 17.6666V22.3333C18 23.0696 18.597 23.6666 19.3333 23.6666H28.6667C29.403 23.6666 30 23.0696 30 22.3333V17.6666C30 16.9302 29.403 16.3333 28.6667 16.3333Z" stroke="#315BFF" stroke-width="2" stroke-linecap="round" stroke-linejoin="round"/>
<path d="M20.6667 16.3333V13.6666C20.6667 12.7825 21.0178 11.9347 21.643 11.3096C22.2681 10.6844 23.1159 10.3333 24 10.3333C24.884 10.3333 25.7319 10.6844 26.357 11.3096C26.9821 11.9347 27.3333 12.7825 27.3333 13.6666V16.3333" stroke="#315BFF" stroke-width="2" stroke-linecap="round" stroke-linejoin="round"/>
<defs>
<filter id="filter0_d_2_14647" x="0" y="0" width="48" height="48" filterUnits="userSpaceOnUse" color-interpolation-filters="sRGB">
<feFlood flood-opacity="0" result="BackgroundImageFix"/>
<feColorMatrix in="SourceAlpha" type="matrix" values="0 0 0 0 0 0 0 0 0 0 0 0 0 0 0 0 0 0 127 0" result="hardAlpha"/>
<feOffset dy="5"/>
<feGaussianBlur stdDeviation="4"/>
<feColorMatrix type="matrix" values="0 0 0 0 0.176471 0 0 0 0 0.305882 0 0 0 0 0.960784 0 0 0 0.1 0"/>
<feBlend mode="normal" in2="BackgroundImageFix" result="effect1_dropShadow_2_14647"/>
<feBlend mode="normal" in="SourceGraphic" in2="effect1_dropShadow_2_14647" result="shape"/>
</filter>
</defs>
</svg>
