<svg width="16" height="16" viewBox="0 0 16 16" fill="none" xmlns="http://www.w3.org/2000/svg">
<path d="M12.6667 7.33325H3.33333C2.59695 7.33325 2 7.93021 2 8.66659V13.3333C2 14.0696 2.59695 14.6666 3.33333 14.6666H12.6667C13.403 14.6666 14 14.0696 14 13.3333V8.66659C14 7.93021 13.403 7.33325 12.6667 7.33325Z" stroke="#315BFF" stroke-width="2" stroke-linecap="round" stroke-linejoin="round"/>
<path d="M4.66666 7.33325V4.66658C4.66666 3.78253 5.01785 2.93468 5.64297 2.30956C6.26809 1.68444 7.11593 1.33325 7.99999 1.33325C8.88404 1.33325 9.73189 1.68444 10.357 2.30956C10.9821 2.93468 11.3333 3.78253 11.3333 4.66658V7.33325" stroke="#315BFF" stroke-width="2" stroke-linecap="round" stroke-linejoin="round"/>
</svg>
