<svg width="36" height="37" viewBox="0 0 36 37" fill="none" xmlns="http://www.w3.org/2000/svg">
<path d="M31.5 24.5526V12.4476C31.5 11.3706 30.9255 10.3746 29.9925 9.83608L19.509 3.78357C18.576 3.24507 17.4255 3.24507 16.4925 3.78357L6.0075 9.83458C5.0745 10.3746 4.5 11.3691 4.5 12.4476V24.5526C4.5 25.6296 5.0745 26.6256 6.0075 27.1641L16.491 33.2166C17.424 33.7551 18.5745 33.7551 19.5075 33.2166L29.991 27.1641C30.9255 26.6256 31.5 25.6311 31.5 24.5526Z" stroke="#315BFF" stroke-width="2" stroke-linecap="round" stroke-linejoin="round"/>
<path d="M4.92004 26.0451L31.08 10.9551" stroke="#315BFF" stroke-width="2" stroke-linecap="round" stroke-linejoin="round"/>
<path d="M18 3.42511V33.5751" stroke="#315BFF" stroke-width="2" stroke-linecap="round" stroke-linejoin="round"/>
<path d="M31.08 26.0451L4.92004 10.9551" stroke="#315BFF" stroke-width="2" stroke-linecap="round" stroke-linejoin="round"/>
</svg>
