<svg width="124" height="21" viewBox="0 0 124 21" fill="none" xmlns="http://www.w3.org/2000/svg">
<path d="M9.38228 2.92705C9.68163 2.00574 10.985 2.00574 11.2844 2.92705L12.4288 6.44917C12.5627 6.8612 12.9466 7.14016 13.3799 7.14016H17.0832C18.052 7.14016 18.4547 8.37977 17.671 8.94917L14.6749 11.126C14.3244 11.3806 14.1778 11.832 14.3117 12.244L15.4561 15.7661C15.7554 16.6874 14.7009 17.4536 13.9172 16.8842L10.9211 14.7074C10.5706 14.4527 10.096 14.4527 9.74555 14.7074L6.74945 16.8842C5.96574 17.4536 4.91126 16.6874 5.21061 15.7661L6.35502 12.244C6.48889 11.832 6.34223 11.3806 5.99174 11.126L2.99565 8.94918C2.21194 8.37978 2.61471 7.14016 3.58343 7.14016H7.28681C7.72004 7.14016 8.104 6.8612 8.23787 6.44917L9.38228 2.92705Z" fill="#FE7831"/>
<path d="M35.2156 2.92705C35.5149 2.00574 36.8184 2.00574 37.1177 2.92705L38.2621 6.44917C38.396 6.8612 38.7799 7.14016 39.2132 7.14016H42.9165C43.8853 7.14016 44.288 8.37977 43.5043 8.94917L40.5082 11.126C40.1577 11.3806 40.0111 11.832 40.145 12.244L41.2894 15.7661C41.5887 16.6874 40.5342 17.4536 39.7505 16.8842L36.7544 14.7074C36.4039 14.4527 35.9293 14.4527 35.5789 14.7074L32.5828 16.8842C31.7991 17.4536 30.7446 16.6874 31.0439 15.7661L32.1883 12.244C32.3222 11.832 32.1755 11.3806 31.8251 11.126L28.829 8.94918C28.0452 8.37978 28.448 7.14016 29.4167 7.14016H33.1201C33.5534 7.14016 33.9373 6.8612 34.0712 6.44917L35.2156 2.92705Z" fill="#FE7831"/>
<path d="M61.049 2.92705C61.3483 2.00574 62.6517 2.00574 62.9511 2.92705L64.0955 6.44917C64.2294 6.8612 64.6133 7.14016 65.0465 7.14016H68.7499C69.7186 7.14016 70.1214 8.37977 69.3377 8.94917L66.3416 11.126C65.9911 11.3806 65.8445 11.832 65.9783 12.244L67.1227 15.7661C67.4221 16.6874 66.3676 17.4536 65.5839 16.8842L62.5878 14.7074C62.2373 14.4527 61.7627 14.4527 61.4122 14.7074L58.4161 16.8842C57.6324 17.4536 56.5779 16.6874 56.8773 15.7661L58.0217 12.244C58.1556 11.832 58.0089 11.3806 57.6584 11.126L54.6623 8.94918C53.8786 8.37978 54.2814 7.14016 55.2501 7.14016H58.9535C59.3867 7.14016 59.7707 6.8612 59.9046 6.44917L61.049 2.92705Z" fill="#FE7831"/>
<path d="M86.8823 2.92705C87.1816 2.00574 88.485 2.00574 88.7844 2.92705L89.9288 6.44917C90.0627 6.8612 90.4466 7.14016 90.8799 7.14016H94.5832C95.552 7.14016 95.9547 8.37977 95.171 8.94917L92.1749 11.126C91.8244 11.3806 91.6778 11.832 91.8117 12.244L92.9561 15.7661C93.2554 16.6874 92.2009 17.4536 91.4172 16.8842L88.4211 14.7074C88.0706 14.4527 87.596 14.4527 87.2455 14.7074L84.2495 16.8842C83.4657 17.4536 82.4113 16.6874 82.7106 15.7661L83.855 12.244C83.9889 11.832 83.8422 11.3806 83.4917 11.126L80.4957 8.94918C79.7119 8.37978 80.1147 7.14016 81.0834 7.14016H84.7868C85.22 7.14016 85.604 6.8612 85.7379 6.44917L86.8823 2.92705Z" fill="#FE7831"/>
<path d="M112.716 2.92705C113.015 2.00574 114.318 2.00574 114.618 2.92705L115.762 6.44917C115.896 6.8612 116.28 7.14016 116.713 7.14016H120.417C121.385 7.14016 121.788 8.37977 121.004 8.94917L118.008 11.126C117.658 11.3806 117.511 11.832 117.645 12.244L118.789 15.7661C119.089 16.6874 118.034 17.4536 117.251 16.8842L114.254 14.7074C113.904 14.4527 113.429 14.4527 113.079 14.7074L110.083 16.8842C109.299 17.4536 108.245 16.6874 108.544 15.7661L109.688 12.244C109.822 11.832 109.676 11.3806 109.325 11.126L106.329 8.94918C105.545 8.37978 105.948 7.14016 106.917 7.14016H110.62C111.053 7.14016 111.437 6.8612 111.571 6.44917L112.716 2.92705Z" fill="#C1C0C0"/>
</svg>
