<svg width="30" height="29" viewBox="0 0 30 29" fill="none" xmlns="http://www.w3.org/2000/svg">
<path d="M14.9999 1C7.5719 1 1.4939 7.078 1.4939 14.506V19.3855" stroke="#315BFF" stroke-width="2" stroke-linecap="round" stroke-linejoin="round"/>
<path d="M14.9999 1C22.4279 1 28.5059 7.078 28.5059 14.506V19.3855" stroke="#315BFF" stroke-width="2" stroke-linecap="round" stroke-linejoin="round"/>
<path d="M23.4914 28H25.1624C27.0089 28 28.5059 26.503 28.5059 24.6565V17.971H23.4914C22.5689 17.971 21.8204 18.7195 21.8204 19.642V26.3275C21.8204 27.2515 22.5674 28 23.4914 28Z" stroke="#315BFF" stroke-width="2" stroke-linecap="round" stroke-linejoin="round"/>
<path d="M6.5084 28H4.8374C2.9909 28 1.4939 26.503 1.4939 24.6565V17.971H6.5084C7.4309 17.971 8.1794 18.7195 8.1794 19.642V26.3275C8.1794 27.2515 7.4324 28 6.5084 28Z" stroke="#315BFF" stroke-width="2" stroke-linecap="round" stroke-linejoin="round"/>
</svg>
