
<svg width="124px" height="21px" viewBox="0 0 124 21" version="1.1" xmlns="http://www.w3.org/2000/svg" xmlns:xlink="http://www.w3.org/1999/xlink">
    <g id="Page-1" stroke="none" stroke-width="1" fill="none" fill-rule="evenodd">
        <g id="Homepage-/-Desktop-" transform="translate(-994.000000, -2681.000000)" fill="#FE7831" fill-rule="nonzero">
            <g id="Best-seller" transform="translate(-17.000000, 2466.000000)">
                <g id="Rating" transform="translate(1011.000000, 215.000000)">
                    <polygon id="Star-1" points="10.333333 0 12.6533109 7.14015739 20.1609167 7.14015751 14.0871361 11.5530176 16.4071138 18.693175 10.333333 14.2803151 4.25955226 18.693175 6.57952994 11.5530176 0.505749316 7.14015751 8.01335513 7.14015739"></polygon>
                    <polygon id="Star-2" points="36.166667 0 38.4866449 7.14015739 45.9942507 7.14015751 39.9204701 11.5530176 42.2404477 18.693175 36.166667 14.2803151 30.0928862 18.693175 32.4128639 11.5530176 26.3390833 7.14015751 33.8466891 7.14015739"></polygon>
                    <polygon id="Star-3" points="62.000001 0 64.3199788 7.14015739 71.8275847 7.14015751 65.753804 11.5530176 68.0737817 18.693175 62.000001 14.2803151 55.9262202 18.693175 58.2461979 11.5530176 52.1724173 7.14015751 59.6800231 7.14015739"></polygon>
                    <polygon id="Star-4" points="87.833333 0 90.1533109 7.14015739 97.6609167 7.14015751 91.5871361 11.5530176 93.9071138 18.693175 87.833333 14.2803151 81.7595523 18.693175 84.0795299 11.5530176 78.0057493 7.14015751 85.5133551 7.14015739"></polygon>
                    <polygon id="Star-5" points="113.666669 0 115.986647 7.14015739 123.494253 7.14015751 117.420472 11.5530176 119.74045 18.693175 113.666669 14.2803151 107.592888 18.693175 109.912866 11.5530176 103.839085 7.14015751 111.346691 7.14015739"></polygon>
                </g>
            </g>
        </g>
    </g>
</svg>